<svg width="30" height="30" viewBox="0 0 30 30" fill="none" xmlns="http://www.w3.org/2000/svg">
<path d="M22.0312 20.625H21.5625V9.37504H22.0312C22.2799 9.37504 22.5183 9.27627 22.6942 9.10045C22.87 8.92464 22.9688 8.68618 22.9688 8.43754C22.9688 8.1889 22.87 7.95044 22.6942 7.77463C22.5183 7.59881 22.2799 7.50004 22.0312 7.50004H21.4875C21.2633 5.93923 20.484 4.51155 19.2924 3.47886C18.1008 2.44617 16.5768 1.87769 15 1.87769C13.4232 1.87769 11.8992 2.44617 10.7076 3.47886C9.51601 4.51155 8.73666 5.93923 8.5125 7.50004H7.96875C7.72011 7.50004 7.48165 7.59881 7.30584 7.77463C7.13002 7.95044 7.03125 8.1889 7.03125 8.43754C7.03125 8.68618 7.13002 8.92464 7.30584 9.10045C7.48165 9.27627 7.72011 9.37504 7.96875 9.37504H8.4375V20.625H7.96875C7.72011 20.625 7.48165 20.7238 7.30584 20.8996C7.13002 21.0754 7.03125 21.3139 7.03125 21.5625C7.03125 21.8112 7.13002 22.0496 7.30584 22.2255C7.48165 22.4013 7.72011 22.5 7.96875 22.5H8.5125C8.73666 24.0608 9.51601 25.4885 10.7076 26.5212C11.8992 27.5539 13.4232 28.1224 15 28.1224C16.5768 28.1224 18.1008 27.5539 19.2924 26.5212C20.484 25.4885 21.2633 24.0608 21.4875 22.5H22.0312C22.2799 22.5 22.5183 22.4013 22.6942 22.2255C22.87 22.0496 22.9688 21.8112 22.9688 21.5625C22.9688 21.3139 22.87 21.0754 22.6942 20.8996C22.5183 20.7238 22.2799 20.625 22.0312 20.625ZM15.2812 20.625L19.6875 17.6888V20.625H15.2812ZM19.6875 10.7485L10.3125 16.9988V14.5613L18.0937 9.37504H19.6875V10.7485ZM15 3.75004C16.0802 3.7514 17.1269 4.12512 17.9637 4.80821C18.8005 5.4913 19.3762 6.44199 19.5938 7.50004H10.4063C10.6238 6.44199 11.1995 5.4913 12.0363 4.80821C12.8731 4.12512 13.9198 3.7514 15 3.75004ZM14.7188 9.37504L10.3125 12.3113V9.37504H14.7188ZM10.3125 19.2516L19.6875 13.0013V15.4388L11.9062 20.625H10.3125V19.2516ZM15 26.25C13.9198 26.2487 12.8731 25.875 12.0363 25.1919C11.1995 24.5088 10.6238 23.5581 10.4063 22.5H19.5938C19.3762 23.5581 18.8005 24.5088 17.9637 25.1919C17.1269 25.875 16.0802 26.2487 15 26.25Z" fill="#333333"/>
</svg>
