<svg width="100" height="100" viewBox="0 0 100 100" fill="none" xmlns="http://www.w3.org/2000/svg">
<path d="M61.4625 12.8375C61.3017 12.7086 61.117 12.6127 60.919 12.5555C60.721 12.4983 60.5137 12.4808 60.3089 12.504C60.1041 12.5272 59.906 12.5908 59.7258 12.6909C59.5457 12.791 59.3872 12.9258 59.2594 13.0875L44.875 31.25H36.9031L54.3625 9.20625C55.0015 8.39926 55.7937 7.7265 56.6935 7.22662C57.5933 6.72675 58.583 6.40962 59.6058 6.29346C60.6286 6.17731 61.6642 6.26441 62.6532 6.54976C63.6422 6.83512 64.5651 7.31311 65.3687 7.95625L81.4531 20.8406C82.9739 22.0592 83.9844 23.8022 84.2862 25.7275C84.588 27.6528 84.1594 29.6214 83.0844 31.2469H74.9156L77.75 27.9594C77.8872 27.8004 77.991 27.6153 78.0551 27.4153C78.1192 27.2153 78.1423 27.0044 78.1231 26.7952C78.1038 26.5861 78.0426 26.3829 77.9431 26.198C77.8435 26.013 77.7077 25.85 77.5437 25.7188L69.7188 19.45L60.4437 31.25H52.4938L64.8375 15.5438L61.4625 12.8375ZM18.75 21.875C16.2636 21.875 13.879 22.8627 12.1209 24.6209C10.3627 26.379 9.375 28.7636 9.375 31.25V76.5625C9.375 80.2921 10.8566 83.869 13.4938 86.5062C16.131 89.1434 19.7079 90.625 23.4375 90.625H76.5625C80.2921 90.625 83.869 89.1434 86.5062 86.5062C89.1434 83.869 90.625 80.2921 90.625 76.5625V48.4375C90.625 44.7079 89.1434 41.1311 86.5062 38.4938C83.869 35.8566 80.2921 34.375 76.5625 34.375H18.75C17.9212 34.375 17.1263 34.0458 16.5403 33.4597C15.9542 32.8737 15.625 32.0788 15.625 31.25C15.625 30.4212 15.9542 29.6263 16.5403 29.0403C17.1263 28.4542 17.9212 28.125 18.75 28.125H33.0625L38.05 21.875H18.75ZM65.625 59.375H75C75.8288 59.375 76.6237 59.7042 77.2097 60.2903C77.7958 60.8763 78.125 61.6712 78.125 62.5C78.125 63.3288 77.7958 64.1237 77.2097 64.7097C76.6237 65.2958 75.8288 65.625 75 65.625H65.625C64.7962 65.625 64.0013 65.2958 63.4153 64.7097C62.8292 64.1237 62.5 63.3288 62.5 62.5C62.5 61.6712 62.8292 60.8763 63.4153 60.2903C64.0013 59.7042 64.7962 59.375 65.625 59.375Z" fill="black"/>
</svg>
