<svg width="40" height="40" viewBox="0 0 40 40" fill="none" xmlns="http://www.w3.org/2000/svg">
<circle cx="20" cy="20" r="20" fill="#FFFEFE"/>
<circle cx="20" cy="20" r="19.7" stroke="black" stroke-opacity="0.8" stroke-width="0.6"/>
<path d="M25.8334 13.3334H14.1667C13.5037 13.3334 12.8678 13.5968 12.399 14.0656C11.9301 14.5344 11.6667 15.1703 11.6667 15.8334V24.1667C11.6667 24.8297 11.9301 25.4656 12.399 25.9345C12.8678 26.4033 13.5037 26.6667 14.1667 26.6667H25.8334C26.4965 26.6667 27.1323 26.4033 27.6012 25.9345C28.07 25.4656 28.3334 24.8297 28.3334 24.1667V15.8334C28.3334 15.1703 28.07 14.5344 27.6012 14.0656C27.1323 13.5968 26.4965 13.3334 25.8334 13.3334ZM25.8334 15L20.4167 18.725C20.2901 18.7982 20.1464 18.8367 20.0001 18.8367C19.8538 18.8367 19.7101 18.7982 19.5834 18.725L14.1667 15H25.8334Z" fill="#85B6FF"/>
</svg>
