<svg width="40" height="40" viewBox="0 0 40 40" fill="none" xmlns="http://www.w3.org/2000/svg">
<circle cx="20" cy="20" r="20" fill="#FFFEFE"/>
<circle cx="20" cy="20" r="19.7" stroke="black" stroke-opacity="0.8" stroke-width="0.6"/>
<path d="M24.6666 16.6667H16.8888C16.7415 16.6667 16.6002 16.6082 16.496 16.504C16.3918 16.3998 16.3333 16.2585 16.3333 16.1112V13.8889C16.3333 13.7416 16.3918 13.6003 16.496 13.4961C16.6002 13.3919 16.7415 13.3334 16.8888 13.3334H24.6666C24.8139 13.3334 24.9552 13.3919 25.0594 13.4961C25.1636 13.6003 25.2221 13.7416 25.2221 13.8889V16.1112C25.2221 16.2585 25.1636 16.3998 25.0594 16.504C24.9552 16.6082 24.8139 16.6667 24.6666 16.6667ZM17.4444 15.5556H24.111V14.4112H17.4444V15.5556Z" fill="#85B6FF"/>
<path d="M24.6666 17.8223H16.8888C16.7415 17.8223 16.6002 17.8808 16.496 17.985C16.3918 18.0892 16.3333 18.2305 16.3333 18.3778V20.5556C16.3333 20.7029 16.3918 20.8442 16.496 20.9484C16.6002 21.0526 16.7415 21.1112 16.8888 21.1112H23.1999L25.2221 19.0556V18.3778C25.2221 18.2305 25.1636 18.0892 25.0594 17.985C24.9552 17.8808 24.8139 17.8223 24.6666 17.8223ZM24.111 20H17.4444V18.8889H24.111V20Z" fill="#85B6FF"/>
<path d="M19.1444 27.5055V27.4722L19.3222 26.7H15.2222V12.2222H26.3333V17.9166L27.4444 16.8666V11.6666C27.4444 11.5193 27.3859 11.378 27.2817 11.2738C27.1775 11.1696 27.0362 11.1111 26.8889 11.1111H14.6666C14.5193 11.1111 14.378 11.1696 14.2738 11.2738C14.1696 11.378 14.1111 11.5193 14.1111 11.6666V27.2222C14.1111 27.3695 14.1696 27.5108 14.2738 27.615C14.378 27.7192 14.5193 27.7778 14.6666 27.7778H19.1111C19.1157 27.6863 19.1268 27.5954 19.1444 27.5055Z" fill="#85B6FF"/>
<path d="M25.2222 20.65L24.7888 21.0889C24.8963 21.0668 24.9949 21.0132 25.072 20.9351C25.1491 20.857 25.2014 20.7578 25.2222 20.65Z" fill="#85B6FF"/>
<path d="M16.3333 24.9666C16.3333 25.114 16.3918 25.2553 16.496 25.3594C16.6002 25.4636 16.7415 25.5222 16.8888 25.5222H19.5777L19.7444 24.7999L19.8166 24.4944V24.4666H17.4444V23.3333H20.9666L22.0777 22.2222H16.8888C16.7415 22.2222 16.6002 22.2807 16.496 22.3849C16.3918 22.4891 16.3333 22.6304 16.3333 22.7777V24.9666Z" fill="#85B6FF"/>
<path d="M31.6055 19.2612L29.7332 17.3889C29.6502 17.3056 29.5514 17.2395 29.4428 17.1944C29.3341 17.1493 29.2176 17.1261 29.0999 17.1261C28.9822 17.1261 28.8657 17.1493 28.7571 17.1944C28.6484 17.2395 28.5497 17.3056 28.4666 17.3889L20.8499 25.0501L20.2221 27.7223C20.1986 27.8376 20.1981 27.9563 20.2206 28.0718C20.2431 28.1873 20.2881 28.2972 20.3531 28.3953C20.4181 28.4933 20.5019 28.5776 20.5995 28.6433C20.6972 28.7089 20.8068 28.7546 20.9221 28.7778C20.9794 28.7836 21.0371 28.7836 21.0944 28.7778C21.1624 28.7889 21.2318 28.7889 21.2999 28.7778L23.9944 28.1834L31.6055 20.5556C31.6886 20.473 31.7546 20.3748 31.7996 20.2665C31.8447 20.1583 31.8678 20.0423 31.8678 19.9251C31.8678 19.8078 31.8447 19.6918 31.7996 19.5836C31.7546 19.4754 31.6886 19.3771 31.6055 19.2945V19.2612ZM23.4277 27.1723L21.3944 27.6223L21.8888 25.6056L27.5999 19.8334L29.1666 21.4001L23.4277 27.1723ZM29.7944 20.7723L28.2277 19.2056L29.111 18.3334L30.6888 19.9112L29.7944 20.7723Z" fill="#85B6FF"/>
</svg>
