<svg width="30" height="30" viewBox="0 0 30 30" fill="none" xmlns="http://www.w3.org/2000/svg">
<path d="M9.14062 20.5664C10.2714 20.5664 11.1914 19.6464 11.1914 18.5156C11.1914 17.3848 10.2714 16.4648 9.14062 16.4648C8.00982 16.4648 7.08984 17.3848 7.08984 18.5156C7.08984 19.6464 8.00982 20.5664 9.14062 20.5664Z" fill="#333333"/>
<path d="M9.14062 12.9492C10.2714 12.9492 11.1914 12.0292 11.1914 10.8984C11.1914 9.76764 10.2714 8.84766 9.14062 8.84766C8.00982 8.84766 7.08984 9.76764 7.08984 10.8984C7.08984 12.0292 8.00982 12.9492 9.14062 12.9492Z" fill="#333333"/>
<path d="M21.4453 20.5664C22.5761 20.5664 23.4961 19.6464 23.4961 18.5156C23.4961 17.3848 22.5761 16.4648 21.4453 16.4648C20.3145 16.4648 19.3945 17.3848 19.3945 18.5156C19.3945 19.6464 20.3145 20.5664 21.4453 20.5664Z" fill="#333333"/>
<path d="M21.1523 25.8398C22.5831 25.8398 23.4961 25.3193 23.4961 24.9609C23.4961 24.6026 22.5831 24.082 21.1523 24.082C19.7216 24.082 18.8086 24.6026 18.8086 24.9609C18.8086 25.3193 19.7216 25.8398 21.1523 25.8398Z" fill="#333333"/>
<path d="M21.4453 12.9492C22.5761 12.9492 23.4961 12.0292 23.4961 10.8984C23.4961 9.76764 22.5761 8.84766 21.4453 8.84766C20.3145 8.84766 19.3945 9.76764 19.3945 10.8984C19.3945 12.0292 20.3145 12.9492 21.4453 12.9492Z" fill="#333333"/>
<path d="M8.84766 25.8398C10.2783 25.8398 11.1914 25.3193 11.1914 24.9609C11.1914 24.6026 10.2783 24.082 8.84766 24.082C7.41697 24.082 6.50391 24.6026 6.50391 24.9609C6.50391 25.3193 7.41697 25.8398 8.84766 25.8398Z" fill="#333333"/>
<path d="M1.81641 1.81641V3.57422H13.8281C13.9899 3.57422 14.1211 3.70541 14.1211 3.86719C14.1211 4.02896 13.9899 4.16016 13.8281 4.16016H1.81641V5.91797H3.86719H26.1328H28.1836V1.81641H1.81641Z" fill="#333333"/>
<path d="M4.16016 28.1836H25.8398V6.50391H4.16016V28.1836ZM21.4453 8.26172C22.8992 8.26172 24.082 9.44455 24.082 10.8984C24.082 12.3523 22.8992 13.5352 21.4453 13.5352C19.9914 13.5352 18.8086 12.3523 18.8086 10.8984C18.8086 9.44455 19.9914 8.26172 21.4453 8.26172ZM21.4453 15.8789C22.8992 15.8789 24.082 17.0617 24.082 18.5156C24.082 19.9695 22.8992 21.1523 21.4453 21.1523C19.9914 21.1523 18.8086 19.9695 18.8086 18.5156C18.8086 17.0617 19.9914 15.8789 21.4453 15.8789ZM9.14062 8.26172C10.5945 8.26172 11.7773 9.44455 11.7773 10.8984C11.7773 12.3523 10.5945 13.5352 9.14062 13.5352C7.68674 13.5352 6.50391 12.3523 6.50391 10.8984C6.50391 9.44455 7.68674 8.26172 9.14062 8.26172ZM9.14062 15.8789C10.5945 15.8789 11.7773 17.0617 11.7773 18.5156C11.7773 19.9695 10.5945 21.1523 9.14062 21.1523C7.68674 21.1523 6.50391 19.9695 6.50391 18.5156C6.50391 17.0617 7.68674 15.8789 9.14062 15.8789ZM8.84766 23.4961C10.316 23.4961 11.4665 23.9829 11.7233 24.668H18.2767C18.5336 23.9829 19.684 23.4961 21.1523 23.4961C22.8226 23.4961 24.082 24.1259 24.082 24.9609C24.082 25.796 22.8226 26.4258 21.1523 26.4258C19.684 26.4258 18.5336 25.9389 18.2767 25.2539H11.7233C11.4665 25.9389 10.316 26.4258 8.84766 26.4258C7.17744 26.4258 5.91797 25.796 5.91797 24.9609C5.91797 24.1259 7.17744 23.4961 8.84766 23.4961Z" fill="#333333"/>
</svg>
