<svg width="30" height="30" viewBox="0 0 30 30" fill="none" xmlns="http://www.w3.org/2000/svg">
<g clip-path="url(#clip0_0_45)">
<path d="M5.23853 8.56016H10.3252V1.62158H5.23853V8.56016ZM5.67444 2.21632H9.88931V7.96553H5.67444V2.21632Z" fill="#333333"/>
<path d="M6.75244 6.49509H8.81129V3.68665H6.75244V6.49509ZM6.89777 3.88488H8.66588V6.29684H6.89777V3.88488Z" fill="#333333"/>
<path d="M7.78191 4.82097C7.86053 4.82097 7.92433 4.63743 7.92433 4.41073C7.92433 4.18412 7.86054 4.00049 7.78191 4.00049C7.70327 4.00049 7.6394 4.18412 7.6394 4.41073C7.6394 4.63743 7.70327 4.82097 7.78191 4.82097Z" fill="#333333"/>
<path d="M7.78191 5.36084C7.70327 5.36084 7.6394 5.54447 7.6394 5.77098C7.6394 5.9977 7.70327 6.18122 7.78191 6.18122C7.86053 6.18122 7.92433 5.99769 7.92433 5.77098C7.92432 5.54447 7.86053 5.36084 7.78191 5.36084Z" fill="#333333"/>
<path d="M7.64188 4.90006C7.69751 4.82427 7.64741 4.6328 7.5299 4.47249C7.41252 4.31229 7.27216 4.24404 7.21653 4.31994C7.16096 4.39574 7.21099 4.58712 7.32843 4.7474C7.44594 4.9076 7.58624 4.97585 7.64188 4.90006Z" fill="#333333"/>
<path d="M7.92186 5.28171C7.8663 5.35759 7.91625 5.54888 8.03378 5.70917C8.1513 5.86947 8.29165 5.93782 8.34715 5.86183C8.40285 5.78603 8.35276 5.59457 8.23524 5.43436C8.1178 5.27416 7.97749 5.20582 7.92186 5.28171Z" fill="#333333"/>
<path d="M7.58408 5.09097C7.58416 4.98363 7.44954 4.89661 7.28334 4.89661C7.11714 4.89661 6.98267 4.98363 6.98267 5.09097C6.98267 5.19822 7.11729 5.28525 7.28334 5.28525C7.44954 5.28525 7.58416 5.19822 7.58408 5.09097Z" fill="#333333"/>
<path d="M8.28041 4.89661C8.11442 4.89661 7.97974 4.98363 7.97974 5.09097C7.97974 5.19822 8.11429 5.28525 8.28041 5.28525C8.44661 5.28525 8.58129 5.19822 8.58122 5.09087C8.58129 4.98363 8.44661 4.89661 8.28041 4.89661Z" fill="#333333"/>
<path d="M7.64189 5.28195C7.58626 5.20586 7.44596 5.27421 7.32844 5.43451C7.21085 5.59481 7.16096 5.78609 7.21659 5.86197C7.27216 5.93767 7.41252 5.86942 7.5299 5.70922C7.64743 5.54894 7.69752 5.35756 7.64189 5.28195Z" fill="#333333"/>
<path d="M7.92187 4.9001C7.97743 4.97599 8.11766 4.90775 8.23517 4.74754C8.35269 4.58724 8.40278 4.39568 8.34708 4.31998C8.29158 4.24399 8.15121 4.31232 8.03371 4.47263C7.9164 4.63283 7.86624 4.8242 7.92187 4.9001Z" fill="#333333"/>
<path d="M29.3672 20.5856H27.0635C26.9449 20.7217 26.8159 20.8453 26.676 20.9525C25.7397 21.67 24.607 21.4769 23.8297 20.5856H23.6271C23.4551 21.2215 23.2163 21.8111 22.8115 22.1774C21.8939 23.0079 21.1794 22.6473 20.9149 22.4537C20.6714 22.2756 20.4211 21.9518 20.5164 21.6251C20.5613 21.471 20.6945 21.3212 20.9217 21.4055C21.0943 21.4695 21.2361 21.4475 21.3682 21.3361C21.5774 21.1597 21.8696 20.658 22.0733 19.2701C22.1765 18.567 22.3329 18.0206 22.5227 17.5944C22.3025 17.1772 22.0181 16.8582 21.6501 16.7549C21.4995 16.7125 21.3595 16.6945 21.2243 16.6922C21.2259 16.684 21.2287 16.6767 21.2302 16.6684C21.5966 14.6063 19.3053 12.5538 18.1342 11.6554L18.3146 7.01696C18.032 6.58874 17.8316 6.06928 17.734 5.50928C17.2217 5.02741 16.499 4.95704 15.701 5.6133C14.4588 6.63448 15.0354 8.60745 11.365 10.7322C10.2987 11.3494 10.1097 12.3187 10.3245 13.2562C10.3368 13.4044 10.3655 13.5526 10.4136 13.6956L11.3286 16.4147C9.89393 16.4278 6.35493 16.4027 6.31256 16.4024C6.23538 16.3952 6.16812 16.4788 6.15561 16.5836C6.14856 16.6427 6.09604 17.0874 6.03157 17.7235H5.41743C4.83497 17.7235 4.36281 18.3676 4.36281 19.1621C4.36281 19.8895 4.75896 20.4892 5.27282 20.5856H0.632771C0.284747 20.5856 0 20.974 0 21.4488V22.1938C0 22.6685 0.284747 23.057 0.632771 23.057H2.1914V30H3.15054V23.057H5.83462C5.83533 23.0608 5.83586 23.0653 5.83658 23.0691C5.93612 23.5893 6.28217 23.7551 6.7396 23.7551C7.14868 23.7551 7.64683 23.6223 8.13702 23.4918C8.89601 23.2896 9.68053 23.0806 10.0518 23.3503C10.5027 23.6782 11.2612 23.4835 12.1396 23.2577C12.2193 23.2373 12.2999 23.2167 12.3808 23.1963L12.1183 28.4539C12.0788 29.2467 12.5178 29.933 13.0989 29.9869C13.1232 29.9891 13.1475 29.9903 13.1716 29.9903C13.7214 29.9903 14.1848 29.4088 14.2227 28.6495L14.4994 23.1081C14.6472 23.1844 14.7744 23.2933 14.8723 23.447C15.0683 23.7542 15.2431 23.6975 15.3299 23.6361C15.4463 23.554 15.5391 23.3486 15.6096 23.057H26.8495V30H27.8086V23.057H29.3672C29.7153 23.057 30 22.6686 30 22.1938V21.4488C30 20.974 29.7153 20.5856 29.3672 20.5856ZM15.1111 23.1637C14.5041 22.2112 13.217 22.5419 12.081 22.8336C11.33 23.0266 10.5535 23.2258 10.2006 22.9696C9.73028 22.6275 8.92686 22.8415 8.07641 23.0682C7.18148 23.3066 6.25616 23.5532 6.14268 22.96C5.91157 21.7524 6.34449 17.74 6.44691 16.8349C7.27253 16.8406 11.4146 16.8669 11.8963 16.8337C12.1478 16.8163 12.2496 16.6225 12.3393 16.4516C12.4901 16.1643 12.6967 15.7709 13.9613 15.7709C14.8055 15.7709 15.1779 17.7755 15.2989 18.6373C15.6179 20.91 15.4174 23.1266 15.1899 23.2522C15.1896 23.2522 15.1623 23.2441 15.1111 23.1637ZM15.4883 11.8262L15.6979 7.78141C15.7339 7.08509 16.1785 6.55858 16.6889 6.60777C16.7643 6.61506 16.8387 6.63471 16.91 6.66622C17.3166 6.8458 17.5795 7.37777 17.5493 7.95985L17.3155 12.4738C17.6418 12.6639 18.0712 12.9307 18.494 13.2422C19.0782 13.6728 20.8564 14.9831 20.3678 16.8816C20.2026 17.5244 19.6816 17.8767 19.2066 17.6669L19.1853 17.6571C18.9685 17.5533 18.7965 17.3481 18.6887 17.0928C18.015 17.0556 17.1466 16.8519 15.9482 16.3047C15.5447 16.1205 15.2051 16.0564 14.9207 16.0815C14.6511 15.5928 14.3289 15.3393 13.9613 15.3393C13.707 15.3393 13.49 15.356 13.303 15.385L13.1415 14.9052C13.6193 14.0732 14.3457 12.9612 15.4883 11.8262Z" fill="#333333"/>
<path d="M20.858 21.7247C20.3957 21.5532 21.3359 23.1156 22.6775 21.9017C23.0987 21.5206 23.3228 20.8317 23.4896 20.1106C23.4047 19.9661 23.3269 19.811 23.2583 19.6444C22.9541 18.9056 22.8737 18.0774 22.9859 17.3049C22.6943 17.7333 22.4519 18.3762 22.3111 19.3351C21.9638 21.7008 21.3203 21.8963 20.858 21.7247Z" fill="#333333"/>
<path d="M27.249 19.8438C28.0086 18.4858 27.8173 16.5449 26.8218 15.5087C25.8262 14.4725 24.4034 14.7334 23.6437 16.0914C22.8841 17.4494 23.0754 19.3903 24.0709 20.4265C25.0665 21.4627 26.4893 21.2018 27.249 19.8438Z" fill="#333333"/>
<path d="M16.1066 14.1827C17.3641 14.8099 18.6215 15.78 18.8216 16.2671C18.7501 16.7209 18.9356 17.187 19.2651 17.3448C19.2705 17.3474 19.2758 17.3498 19.2812 17.3522C19.6341 17.508 20.0154 17.2521 20.1389 16.7721C20.5588 15.1401 18.9178 13.9308 18.3786 13.5334C17.8983 13.1795 17.4087 12.8836 17.0612 12.6869L17.3073 7.93662C17.334 7.42142 17.0496 6.97439 16.6718 6.93791C16.2942 6.90153 15.9664 7.28963 15.9397 7.80478L15.6582 13.2386C15.6367 13.6545 15.8195 14.0395 16.1066 14.1827Z" fill="#333333"/>
<path d="M20.4557 1.3203C20.4179 1.08201 20.3636 0.860297 20.2943 0.671037C19.9295 -0.325612 19.2914 -0.0473038 18.5607 0.450345C17.8301 0.948007 17.2836 1.47654 17.6484 2.47319C17.7248 2.6818 17.8354 2.89422 17.9686 3.09541C18.4536 1.87031 19.4443 1.16535 20.4557 1.3203Z" fill="#333333"/>
<path d="M21.2071 7.47791C22.3222 6.70085 22.7644 4.83779 22.1948 3.31665C21.6251 1.79551 20.2593 1.1923 19.1441 1.96936C18.029 2.74641 17.5868 4.60947 18.1565 6.13062C18.7261 7.65176 20.0919 8.25496 21.2071 7.47791Z" fill="#333333"/>
</g>
<defs>
<clipPath id="clip0_0_45">
<rect width="30" height="30" fill="white"/>
</clipPath>
</defs>
</svg>
