<svg width="32" height="32" viewBox="0 0 32 32" fill="none" xmlns="http://www.w3.org/2000/svg">
<path fill-rule="evenodd" clip-rule="evenodd" d="M4.96357 30.9228C4.96357 30.9228 3.46205 31.4046 2.03038 29.9611C0.598714 28.5177 1.07658 27.0038 1.07658 27.0038L16.2443 10.2369C16.6188 11.4685 17.2892 12.6281 18.2555 13.6024C19.2218 14.5767 20.3721 15.2526 21.5935 15.6302L4.96357 30.9228Z" stroke="#333333" stroke-width="1.5" stroke-linecap="round" stroke-linejoin="round"/>
<path fill-rule="evenodd" clip-rule="evenodd" d="M14.8301 16.4521L13.6963 17.5953C13.5225 17.7705 13.5225 18.0546 13.6963 18.2298C13.8701 18.4051 14.1519 18.4051 14.3257 18.2298L15.4595 17.0867C15.6333 16.9115 15.6333 16.6273 15.4595 16.4521C15.2857 16.2769 15.0039 16.2769 14.8301 16.4521Z" stroke="#333333" stroke-width="1.5" stroke-linecap="round" stroke-linejoin="round"/>
<path fill-rule="evenodd" clip-rule="evenodd" d="M18.2487 13.7303C21.1455 16.6222 25.8653 16.599 28.7907 13.6784C31.7162 10.7578 31.7394 6.04584 28.8427 3.15388C25.9459 0.261916 21.2261 0.285127 18.3007 3.20572C15.3753 6.12632 15.352 10.8383 18.2487 13.7303Z" stroke="#333333" stroke-width="1.5" stroke-linecap="round" stroke-linejoin="round"/>
<path fill-rule="evenodd" clip-rule="evenodd" d="M29.7045 12.5764C31.681 9.67186 31.3978 5.70481 28.8427 3.15388C26.2854 0.600865 22.3074 0.319731 19.3974 2.29824C19.5681 2.37107 19.728 2.47768 19.8673 2.61815L29.5206 12.3509C29.5903 12.4212 29.6517 12.4968 29.7045 12.5764V12.5764ZM27.6214 14.6346C24.7182 16.5596 20.7848 16.2621 18.2487 13.7303C15.6707 11.1565 15.4055 7.14114 17.4405 4.22996C17.5127 4.41333 17.6223 4.58514 17.7693 4.73343L27.4226 14.4662C27.485 14.5291 27.5516 14.5853 27.6214 14.6346Z" stroke="#333333" stroke-width="1.5" stroke-linecap="round" stroke-linejoin="round"/>
</svg>
