<svg width="100" height="100" viewBox="0 0 100 100" fill="none" xmlns="http://www.w3.org/2000/svg">
<path d="M70.8335 66.6667C68.5418 66.6667 66.6668 64.7917 66.6668 62.5H33.3335C33.3335 64.7917 31.4585 66.6667 29.1668 66.6667C26.8752 66.6667 25.0002 64.7917 25.0002 62.5H8.3335V75C8.3335 79.5833 12.0835 83.3333 16.6668 83.3333H83.3335C87.9168 83.3333 91.6668 79.5833 91.6668 75V62.5H75.0002C75.0002 64.7917 73.1252 66.6667 70.8335 66.6667ZM83.3335 33.3333H70.8335V25C70.8335 20.4167 67.0835 16.6667 62.5002 16.6667H37.5002C32.9168 16.6667 29.1668 20.4167 29.1668 25V33.3333H16.6668C12.0835 33.3333 8.3335 37.0833 8.3335 41.6667V58.3333H25.0002V54.1667C25.0002 51.875 26.8752 50 29.1668 50C31.4585 50 33.3335 51.875 33.3335 54.1667V58.3333H66.6668V54.1667C66.6668 51.875 68.5418 50 70.8335 50C73.1252 50 75.0002 51.875 75.0002 54.1667V58.3333H91.6668V41.6667C91.6668 37.0833 87.9168 33.3333 83.3335 33.3333ZM62.5002 33.3333H37.5002V25H62.5002V33.3333Z" fill="black"/>
</svg>
