<svg width="50" height="50" viewBox="0 0 50 50" fill="none" xmlns="http://www.w3.org/2000/svg">
<path d="M21.8325 10.5175C22.1926 10.1749 22.674 9.98923 23.1709 10.0014C23.6678 10.0136 24.1396 10.2226 24.4825 10.5825L36.985 23.7075C37.3174 24.0562 37.5028 24.5195 37.5028 25.0013C37.5028 25.483 37.3174 25.9463 36.985 26.295L24.485 39.42C24.3152 39.5984 24.112 39.7417 23.8869 39.8416C23.6618 39.9415 23.4193 39.9961 23.1731 40.0022C22.9269 40.0084 22.6819 39.966 22.4521 39.8774C22.2223 39.7889 22.0122 39.656 21.8337 39.4863C21.6553 39.3165 21.512 39.1133 21.4121 38.8882C21.3122 38.6631 21.2577 38.4205 21.2515 38.1743C21.2454 37.9282 21.2878 37.6832 21.3763 37.4534C21.4648 37.2236 21.5977 37.0134 21.7675 36.835L33.0375 25L21.7675 13.1675C21.4248 12.8074 21.2392 12.326 21.2514 11.829C21.2636 11.3321 21.4726 10.8604 21.8325 10.5175ZM11.8325 10.5175C12.1926 10.1749 12.674 9.98923 13.1709 10.0014C13.6679 10.0136 14.1396 10.2226 14.4825 10.5825L26.985 23.7075C27.3174 24.0562 27.5028 24.5195 27.5028 25.0013C27.5028 25.483 27.3174 25.9463 26.985 26.295L14.485 39.42C14.3152 39.5984 14.112 39.7417 13.8869 39.8416C13.6618 39.9415 13.4193 39.9961 13.1731 40.0022C12.9269 40.0084 12.6819 39.966 12.4521 39.8774C12.2223 39.7889 12.0122 39.656 11.8337 39.4863C11.6553 39.3165 11.512 39.1133 11.4121 38.8882C11.3122 38.6631 11.2577 38.4205 11.2515 38.1743C11.2454 37.9282 11.2878 37.6832 11.3763 37.4534C11.4648 37.2236 11.5977 37.0134 11.7675 36.835L23.04 25L11.765 13.165C11.4226 12.8046 11.2375 12.323 11.2501 11.826C11.2628 11.3291 11.4722 10.8575 11.8325 10.515V10.5175Z" fill="#85B6FF"/>
</svg>
