<svg width="30" height="30" viewBox="0 0 30 30" fill="none" xmlns="http://www.w3.org/2000/svg">
<path d="M2.47768 0C1.125 0 0 1.11706 0 2.47492V21.1037C0 22.4615 1.125 23.5786 2.47768 23.5786H10.1786V25.1839C8.41741 25.1839 6.96429 26.6288 6.96429 28.3946C6.96429 28.7692 7.03125 29.1304 7.15178 29.4649C7.26562 29.786 7.56696 30 7.90848 30H22.0982C22.4397 30 22.7411 29.786 22.8549 29.4649C22.9754 29.1304 23.0357 28.7692 23.0357 28.3946C23.0357 26.6288 21.5893 25.1839 19.8214 25.1839V23.5786H27.5223C28.8817 23.5786 30 22.4615 30 21.1037V2.47492C30 1.11706 28.8817 0 27.5223 0H2.47768ZM2.47768 1.60535H27.5223C28.0246 1.60535 28.3929 1.97993 28.3929 2.47492V17.6923H1.60714V2.47492C1.60714 1.97993 1.98214 1.60535 2.47768 1.60535ZM1.60714 19.2977H28.3929V21.1037C28.3929 21.5987 28.0246 21.9732 27.5223 21.9732H2.47768C1.98214 21.9732 1.60714 21.5987 1.60714 21.1037V19.2977ZM11.7857 23.5786H18.2143V25.9866C18.2143 26.4281 18.5759 26.7893 19.0179 26.7893H19.8214C20.7254 26.7893 21.4286 27.4916 21.4286 28.3946H8.57143C8.57143 27.4916 9.27455 26.7893 10.1786 26.7893H10.9821C11.4241 26.7893 11.7857 26.4281 11.7857 25.9866V23.5786Z" fill="#333333"/>
<path d="M5.31676 3.1438C4.87479 3.1438 4.51318 3.505 4.51318 3.94647C4.51318 4.38795 4.87479 4.74915 5.31676 4.74915H8.62479L9.06676 6.52173L10.2587 13.3913C10.3257 13.7726 10.6605 14.0535 11.0489 14.0535H12.04V15.3512C12.04 15.7926 12.4016 16.1538 12.8435 16.1538C13.2855 16.1538 13.6471 15.7926 13.6471 15.3512V14.0535H16.8346V15.3512C16.8346 15.7926 17.1962 16.1538 17.6382 16.1538C18.0801 16.1538 18.4418 15.7926 18.4418 15.3512V14.0535H19.4328C19.8212 14.0535 20.156 13.7726 20.223 13.3913L21.4217 6.48828C21.5087 5.9933 21.127 5.53844 20.6248 5.54513H10.4797L10.0377 3.75248C9.95068 3.39128 9.62256 3.1438 9.25425 3.1438H5.31676ZM10.8078 7.15048H19.6739L18.7565 12.4481H11.7252L10.8078 7.15048Z" fill="#333333"/>
</svg>
