<svg width="35" height="35" viewBox="0 0 35 35" fill="none" xmlns="http://www.w3.org/2000/svg">
<path d="M12.3506 6.88188C12.2488 6.98348 12.168 7.10417 12.1128 7.23705C12.0577 7.36993 12.0293 7.51239 12.0293 7.65625C12.0293 7.80012 12.0577 7.94257 12.1128 8.07545C12.168 8.20833 12.2488 8.32903 12.3506 8.43063L21.4222 17.5L12.3506 26.5694C12.1452 26.7748 12.0299 27.0533 12.0299 27.3438C12.0299 27.6342 12.1452 27.9128 12.3506 28.1181C12.556 28.3235 12.8346 28.4389 13.125 28.4389C13.4154 28.4389 13.694 28.3235 13.8994 28.1181L23.7431 18.2744C23.845 18.1728 23.9258 18.0521 23.9809 17.9192C24.0361 17.7863 24.0645 17.6439 24.0645 17.5C24.0645 17.3561 24.0361 17.2137 23.9809 17.0808C23.9258 16.9479 23.845 16.8272 23.7431 16.7256L13.8994 6.88188C13.7978 6.78002 13.6771 6.69921 13.5442 6.64407C13.4113 6.58893 13.2689 6.56055 13.125 6.56055C12.9811 6.56055 12.8387 6.58893 12.7058 6.64407C12.5729 6.69921 12.4522 6.78002 12.3506 6.88188Z" fill="black"/>
</svg>
