<svg width="100" height="100" viewBox="0 0 100 100" fill="none" xmlns="http://www.w3.org/2000/svg">
<path d="M8.33334 86.1111C5.55556 86.1111 5.55556 83.3333 5.55556 75C5.55556 73.0778 5.55556 64.2722 5.66945 60.7278C5.72501 59.05 7.91945 55.5556 11.1111 55.5556H44.4444V38.8889C44.4444 35.95 45.0972 33.3333 50 33.3333H63.8889C72.2222 33.3333 80.5556 55.5556 80.5556 55.5556C80.5556 55.5556 97.2222 55.5556 97.2222 63.8889V75C97.2222 75 100 75.9389 100 80.4361C100 84.9333 97.2222 86.1111 94.4444 86.1111H8.33334Z" fill="black"/>
<path d="M75 97.2222C68.8635 97.2222 63.8889 92.2476 63.8889 86.1111C63.8889 79.9746 68.8635 75 75 75C81.1365 75 86.1111 79.9746 86.1111 86.1111C86.1111 92.2476 81.1365 97.2222 75 97.2222Z" fill="#292F33"/>
<path d="M75.0001 91.6667C71.9319 91.6667 69.4446 89.1793 69.4446 86.1111C69.4446 83.0428 71.9319 80.5555 75.0001 80.5555C78.0684 80.5555 80.5557 83.0428 80.5557 86.1111C80.5557 89.1793 78.0684 91.6667 75.0001 91.6667Z" fill="#C7C7C7"/>
<path d="M25 97.2222C18.8635 97.2222 13.8889 92.2476 13.8889 86.1111C13.8889 79.9746 18.8635 75 25 75C31.1365 75 36.1111 79.9746 36.1111 86.1111C36.1111 92.2476 31.1365 97.2222 25 97.2222Z" fill="#292F33"/>
<path d="M25.0001 91.6667C21.9319 91.6667 19.4446 89.1793 19.4446 86.1111C19.4446 83.0428 21.9319 80.5555 25.0001 80.5555C28.0684 80.5555 30.5557 83.0428 30.5557 86.1111C30.5557 89.1793 28.0684 91.6667 25.0001 91.6667Z" fill="#C7C7C7"/>
<path d="M72.2222 52.7778C72.2222 55.5556 70.9777 55.5556 69.4444 55.5556H55.5555C54.8188 55.5556 54.1122 55.2629 53.5913 54.742C53.0704 54.221 52.7777 53.5145 52.7777 52.7778V41.6667C52.7777 40.93 53.0704 40.2234 53.5913 39.7025C54.1122 39.1815 54.8188 38.8889 55.5555 38.8889H63.8888C66.6666 38.8889 72.2222 50 72.2222 52.7778Z" fill="#BBDDF5"/>
<path d="M-0.000106812 59.7222C-0.000106812 60.8273 0.438877 61.8871 1.22028 62.6685C2.00168 63.4499 3.06149 63.8889 4.16656 63.8889H44.4443V55.5555H4.16656C3.06149 55.5555 2.00168 55.9945 1.22028 56.7759C0.438877 57.5573 -0.000106812 58.6171 -0.000106812 59.7222Z" fill="black" fill-opacity="0.9"/>
<path d="M97.2222 63.8889H94.4444V77.7778H97.2222V63.8889Z" fill="#99AAB5"/>
<path d="M94.4444 86.1111H97.2222C98.75 86.1111 100 84.8611 100 83.3333V77.7778C100 76.25 98.75 75 97.2222 75H94.4444C92.9167 75 91.6667 76.25 91.6667 77.7778V83.3333C91.6667 84.8611 92.9167 86.1111 94.4444 86.1111ZM5.55556 86.1111H8.33334C9.86111 86.1111 11.1111 84.8611 11.1111 83.3333V77.7778C11.1111 76.25 9.86111 75 8.33334 75H5.55556C4.02778 75 2.77778 76.25 2.77778 77.7778V83.3333C2.77778 84.8611 4.02778 86.1111 5.55556 86.1111Z" fill="black"/>
</svg>
