<svg width="100" height="100" viewBox="0 0 100 100" fill="none" xmlns="http://www.w3.org/2000/svg">
<path d="M77.0833 16.6666H22.9167C20.6155 16.6666 18.75 18.5321 18.75 20.8333V87.5C18.75 89.8011 20.6155 91.6666 22.9167 91.6666H77.0833C79.3845 91.6666 81.25 89.8011 81.25 87.5V20.8333C81.25 18.5321 79.3845 16.6666 77.0833 16.6666Z" fill="black" stroke="black" stroke-width="8.33333" stroke-linejoin="round"/>
<path d="M37.5 8.33331V20.8333Z" fill="black"/>
<path d="M37.5 8.33331V20.8333" stroke="black" stroke-width="8.33333" stroke-linecap="round" stroke-linejoin="round"/>
<path d="M62.5 8.33331V20.8333Z" fill="black"/>
<path d="M62.5 8.33331V20.8333" stroke="black" stroke-width="8.33333" stroke-linecap="round" stroke-linejoin="round"/>
<path d="M33.3335 39.5833H66.6668Z" fill="black"/>
<path d="M33.3335 39.5833H66.6668" stroke="white" stroke-width="8.33333" stroke-linecap="round" stroke-linejoin="round"/>
<path d="M33.3335 56.25H58.3335Z" fill="black"/>
<path d="M33.3335 56.25H58.3335" stroke="white" stroke-width="8.33333" stroke-linecap="round" stroke-linejoin="round"/>
<path d="M33.3335 72.9166H50.0002Z" fill="black"/>
<path d="M33.3335 72.9166H50.0002" stroke="white" stroke-width="8.33333" stroke-linecap="round" stroke-linejoin="round"/>
</svg>
