<svg width="100" height="100" viewBox="0 0 100 100" fill="none" xmlns="http://www.w3.org/2000/svg">
<path d="M50 10V32.5C50 34.4891 50.7902 36.3968 52.1967 37.8033C53.6032 39.2098 55.5109 40 57.5 40H80V82.5C80 84.4891 79.2098 86.3968 77.8033 87.8033C76.3968 89.2098 74.4891 90 72.5 90H43.16C44.41 87.635 45 85.06 45 82.5C45.0004 79.381 43.8348 76.3745 41.732 74.071C39.6291 71.7674 36.7411 70.3332 33.635 70.05C35.7242 67.7375 37.0412 64.8317 37.4031 61.7364C37.765 58.641 37.1539 55.5098 35.6545 52.7777C34.1551 50.0457 31.8421 47.8484 29.0366 46.4913C26.2312 45.1342 23.0727 44.6846 20 45.205V17.5C20 15.5109 20.7902 13.6032 22.1967 12.1967C23.6032 10.7902 25.5109 10 27.5 10H50ZM55 11.25V32.5C55 33.163 55.2634 33.7989 55.7322 34.2678C56.2011 34.7366 56.837 35 57.5 35H78.75L55 11.25ZM32.5 60C32.5 62.6522 31.4464 65.1957 29.5711 67.0711C27.6957 68.9464 25.1522 70 22.5 70C19.8478 70 17.3043 68.9464 15.4289 67.0711C13.5536 65.1957 12.5 62.6522 12.5 60C12.5 57.3478 13.5536 54.8043 15.4289 52.9289C17.3043 51.0536 19.8478 50 22.5 50C25.1522 50 27.6957 51.0536 29.5711 52.9289C31.4464 54.8043 32.5 57.3478 32.5 60ZM40 82.5C40 88.725 35 95 22.5 95C10 95 5 88.75 5 82.5C5 80.5109 5.79018 78.6032 7.1967 77.1967C8.60322 75.7902 10.5109 75 12.5 75H32.5C34.4891 75 36.3968 75.7902 37.8033 77.1967C39.2098 78.6032 40 80.5109 40 82.5Z" fill="black"/>
</svg>
