<svg width="30" height="30" viewBox="0 0 30 30" fill="none" xmlns="http://www.w3.org/2000/svg">
<g clip-path="url(#clip0_5_184)">
<path d="M14.5401 21.1399C10.7001 21.1399 6.40007 21.0999 4.64007 21.0799C4.00007 21.0799 3.50007 20.5599 3.50007 19.9199V18.9199C3.30007 18.6799 2.94007 18.0599 2.90007 16.6999C2.86007 14.9999 3.22007 11.6799 3.24007 11.5199C3.28007 10.9799 3.72007 9.93995 5.12007 10.0199C5.64007 10.0599 6.00007 10.2399 6.18007 10.5599C6.38007 10.8999 6.30007 11.3199 6.20007 11.5999L9.44007 12.7599L12.3201 10.08C12.7001 9.73995 13.2201 9.61995 13.7001 9.81995L25.0601 14.1399C25.4601 14.1799 28.3201 14.5999 28.5801 16.4599C28.7801 17.9999 28.7401 19.4999 26.9601 20.0399C26.7601 20.0999 26.5801 20.1599 26.3801 20.2199C25.2401 20.5799 24.0601 20.9599 20.6601 21.0799C19.3601 21.1199 17.0601 21.1399 14.5401 21.1399ZM4.94007 10.6199C3.94007 10.6199 3.84007 11.4799 3.82007 11.5799C3.82007 11.6199 3.44007 15.0199 3.50007 16.6799C3.54007 18.1599 3.98007 18.5799 4.00007 18.5799C4.08007 18.6399 4.10007 18.7199 4.10007 18.8199V19.9399C4.10007 20.2399 4.34007 20.4999 4.66007 20.4999C7.58007 20.5199 17.3601 20.6199 20.6601 20.4999C23.9801 20.3799 25.0601 20.0399 26.2201 19.6599C26.4201 19.5999 26.6001 19.5399 26.8001 19.4799C27.9401 19.1399 28.2401 18.3799 28.0001 16.5599C27.8401 15.3199 25.7601 14.8399 24.9801 14.7399C24.9601 14.7399 24.9201 14.7399 24.9001 14.7199L13.5001 10.38C13.2401 10.28 12.9601 10.3399 12.7401 10.5199L9.70007 13.3199C9.62007 13.3999 9.50007 13.4199 9.40007 13.3799L5.68007 12.0599C5.60007 12.0399 5.54007 11.9599 5.50007 11.8799C5.46007 11.7999 5.48007 11.6999 5.52007 11.6199C5.58007 11.4999 5.76007 11.0799 5.64007 10.8399C5.54007 10.6599 5.28007 10.6199 5.06007 10.5999C5.02007 10.6199 4.98007 10.6199 4.94007 10.6199Z" fill="#333333"/>
<path d="M19.58 19.44C15.64 19.44 11.18 19.12 10.82 19.1H3.8C3.64 19.1 3.5 18.96 3.5 18.8C3.5 18.64 3.64 18.5 3.8 18.5H10.82H10.84C10.94 18.5 21.38 19.24 24.58 18.5C27.68 17.8 28.18 17.54 28.22 17.54C28.36 17.46 28.54 17.52 28.62 17.66C28.7 17.8 28.64 17.98 28.5 18.06C28.42 18.1 27.9 18.36 24.72 19.08C23.6 19.34 21.66 19.44 19.58 19.44Z" fill="#333333"/>
<path d="M9.64002 19.1C9.52002 19.1 9.42002 19.04 9.36002 18.94C9.36002 18.92 8.74002 17.66 7.64002 15.92C6.60002 14.28 3.32002 14 3.30002 13.98C3.14002 13.96 3.02002 13.82 3.02002 13.66C3.04002 13.5 3.18002 13.38 3.34002 13.38C3.48002 13.4 6.94002 13.7 8.14002 15.58C9.26002 17.36 9.88002 18.62 9.90002 18.66C9.98002 18.8 9.90002 18.98 9.76002 19.06C9.74002 19.08 9.68002 19.1 9.64002 19.1Z" fill="#333333"/>
<path d="M18.5401 19.4199C18.4601 19.4199 18.3801 19.3799 18.3201 19.3199C18.2001 19.1999 18.2201 18.9999 18.3401 18.8999C18.7801 18.4999 21.0601 16.4999 21.7201 16.3399C21.8801 16.2999 22.1601 16.2599 22.5401 16.1999C23.6601 16.0199 25.7601 15.6799 27.0001 15.1599C27.1601 15.0999 27.3201 15.1599 27.4001 15.3199C27.4601 15.4799 27.4001 15.6399 27.2401 15.7199C25.9401 16.2799 23.8801 16.6199 22.6401 16.8199C22.2801 16.8799 22.0001 16.9199 21.8601 16.9599C21.5201 17.0399 20.0201 18.2599 18.7401 19.3799C18.6801 19.3999 18.6001 19.4199 18.5401 19.4199Z" fill="#333333"/>
<path d="M20.3802 17.7399C15.8802 17.7399 7.94019 16.0599 7.84019 16.0399C7.68019 15.9999 7.58019 15.8399 7.60019 15.6799C7.62019 15.5199 7.80019 15.4199 7.96019 15.4399C8.04019 15.4599 16.1402 17.1799 20.5402 17.1199C20.7002 17.1199 20.8402 17.2599 20.8402 17.4199C20.8402 17.5799 20.7002 17.7199 20.5402 17.7199C20.5002 17.7399 20.4402 17.7399 20.3802 17.7399Z" fill="#333333"/>
<path d="M10.8002 16.5999C10.7002 16.5999 10.6202 16.5599 10.5602 16.4799C10.4602 16.3399 10.5002 16.1599 10.6402 16.0599L14.0802 13.6599C14.1602 13.5999 14.2802 13.5799 14.3802 13.6399C14.4002 13.6399 15.6202 14.1399 19.5202 14.1799C22.1602 14.2199 22.6602 13.8399 22.7602 13.7599C22.7202 13.6399 22.7802 13.4999 22.9002 13.4199C23.0402 13.3399 23.2202 13.3799 23.3202 13.5199C23.3802 13.6399 23.4202 13.8399 23.3202 14.0399C23.1402 14.3799 22.5402 14.8199 19.5402 14.7799C16.2402 14.7399 14.7802 14.3999 14.3402 14.2399L10.9602 16.5399C10.9202 16.5799 10.8602 16.5999 10.8002 16.5999Z" fill="#333333"/>
<path d="M13.4202 17.04C13.3202 17.04 13.2402 17 13.1802 16.92C13.0802 16.78 13.1002 16.6 13.2402 16.5L16.4802 14.08C16.6202 13.98 16.8002 14 16.9002 14.14C17.0002 14.28 16.9802 14.46 16.8402 14.56L13.6002 16.98C13.5402 17.02 13.4802 17.04 13.4202 17.04Z" fill="#333333"/>
<path d="M15.7802 17.38C15.6802 17.38 15.6002 17.34 15.5402 17.26C15.4402 17.12 15.4802 16.94 15.6202 16.84L19.3202 14.22C19.4602 14.12 19.6402 14.16 19.7402 14.3C19.8402 14.44 19.8002 14.62 19.6602 14.72L15.9402 17.32C15.9002 17.36 15.8402 17.38 15.7802 17.38Z" fill="#333333"/>
<path d="M13.7401 11.94C13.6801 11.94 13.6001 11.92 13.5401 11.86C13.4201 11.76 13.4001 11.56 13.5001 11.44L14.4601 10.3C14.5601 10.18 14.7601 10.16 14.8801 10.26C15.0001 10.36 15.0201 10.56 14.9201 10.68L13.9601 11.82C13.9001 11.9 13.8201 11.94 13.7401 11.94Z" fill="#333333"/>
<path d="M15.2401 12.5599C15.1801 12.5599 15.1001 12.5399 15.0601 12.4999C14.9401 12.3999 14.9201 12.1999 15.0201 12.0799L15.9601 10.8999C16.0601 10.7799 16.2601 10.7599 16.3801 10.8599C16.5001 10.9599 16.5201 11.1599 16.4201 11.2799L15.4801 12.4599C15.4201 12.5199 15.3401 12.5599 15.2401 12.5599Z" fill="#333333"/>
<path d="M16.9202 13.1199C16.8602 13.1199 16.8002 13.0999 16.7402 13.0599C16.6002 12.9599 16.5802 12.7799 16.6802 12.6399L17.5202 11.4799C17.6202 11.3399 17.8002 11.3199 17.9402 11.4199C18.0802 11.5199 18.1002 11.6999 18.0002 11.8399L17.1602 12.9999C17.1002 13.0799 17.0002 13.1199 16.9202 13.1199Z" fill="#333333"/>
<path d="M18.2601 13.74C18.2001 13.74 18.1201 13.72 18.0601 13.66C17.9401 13.56 17.9201 13.36 18.0201 13.24L19.0201 12.06C19.1201 11.94 19.3201 11.92 19.4401 12.02C19.5601 12.12 19.5801 12.32 19.4801 12.44L18.4801 13.62C18.4201 13.7 18.3401 13.74 18.2601 13.74Z" fill="#333333"/>
</g>
<defs>
<clipPath id="clip0_5_184">
<rect width="30" height="30" fill="white"/>
</clipPath>
</defs>
</svg>
