<svg width="30" height="30" viewBox="0 0 30 30" fill="none" xmlns="http://www.w3.org/2000/svg">
<g clip-path="url(#clip0_0_66)">
<path d="M29.7188 19.5938C29.625 19.125 29.0625 18.8438 28.5938 18.9375C27.9375 19.125 27.4688 18.9375 27.375 18.75C27.2813 18.5625 27.375 18.0938 27.8438 17.5313C28.2188 17.1563 28.2188 16.5938 27.8438 16.2188C26.9063 15.2813 25.7812 14.625 24.4688 14.25C24 14.1563 23.4375 14.4375 23.3438 14.9063C23.1562 15.5625 22.7812 15.8438 22.5 15.8438C22.2188 15.8438 21.9375 15.4688 21.6563 14.9063C21.4688 14.4375 21 14.1563 20.5312 14.25C19.2187 14.625 18.0937 15.2813 17.1562 16.2188C16.7812 16.5938 16.7812 17.1563 17.1562 17.5313C17.625 18 17.7187 18.4688 17.625 18.75C17.5312 18.9375 17.0625 19.125 16.4062 18.9375C15.9375 18.8438 15.375 19.125 15.2812 19.5938C15.0937 20.25 15 20.9063 15 21.5625C15 22.2188 15.0937 22.875 15.2812 23.5313C15.375 24 15.9375 24.2813 16.4062 24.1875C17.0625 24 17.5312 24.1875 17.625 24.375C17.7187 24.5625 17.625 25.0313 17.1562 25.5938C16.7812 25.9688 16.7812 26.5313 17.1562 26.9063C18.0937 27.8438 19.2187 28.5 20.5312 28.875C20.625 28.875 20.7188 28.875 20.8125 28.875C21.1875 28.875 21.5625 28.5938 21.75 28.2188C21.9375 27.5625 22.3125 27.2813 22.5938 27.2813C22.875 27.2813 23.1562 27.6563 23.4375 28.2188C23.625 28.6875 24.0938 28.9688 24.5625 28.875C25.875 28.5 27 27.8438 27.9375 26.9063C28.3125 26.5313 28.3125 25.9688 27.9375 25.5938C27.4687 25.125 27.375 24.6563 27.4687 24.375C27.5625 24.1875 28.0312 24 28.6875 24.1875C29.1562 24.2813 29.7187 24 29.8125 23.5313C30 22.875 30.0937 22.2188 30.0937 21.5625C30.0937 20.9063 29.9063 20.25 29.7188 19.5938ZM22.5 25.3125C20.4375 25.3125 18.75 23.625 18.75 21.5625C18.75 19.5 20.4375 17.8125 22.5 17.8125C24.5625 17.8125 26.25 19.5 26.25 21.5625C26.25 23.625 24.5625 25.3125 22.5 25.3125Z" fill="#333333"/>
<path d="M13.125 21.5625C13.125 20.4375 13.3125 19.4062 13.6875 18.4688C13.6875 18.375 13.6875 18.375 13.6875 18.2812L13.7812 18.1875C14.25 17.0625 14.8125 16.125 15.5625 15.2812C15.6562 14.9062 15.75 14.625 15.8437 14.25C15.8437 13.9688 15.8438 13.6875 15.6562 13.5C15.4688 13.3125 15.1875 13.125 14.9062 13.125C13.875 13.125 12.9375 12.75 12.1875 12.1875H17.8125C18.375 12.1875 18.75 11.8125 18.75 11.25C18.75 10.6875 18.375 10.3125 17.8125 10.3125H17.625V10.125C17.625 8.4375 17.0625 6.9375 16.125 5.625L15.4688 7.96875C15.375 8.34375 15 8.625 14.5312 8.625C14.4375 8.625 14.3437 8.625 14.25 8.625C13.7812 8.4375 13.5 7.96875 13.5937 7.5L14.7187 3.65625C14.7187 3.375 14.5312 3.09375 14.25 2.90625C11.8125 1.6875 8.90625 1.6875 6.46875 2.90625C6.09375 2.90625 6 3.28125 5.90625 3.5625L7.03125 7.40625C7.21875 7.875 6.84375 8.4375 6.375 8.53125C6.28125 8.53125 6.1875 8.53125 6.09375 8.53125C5.71875 8.53125 5.34375 8.25 5.15625 7.875L4.59375 5.625C3.65625 6.9375 3.09375 8.4375 3.09375 10.125V10.3125H2.8125C2.25 10.3125 1.875 10.6875 1.875 11.25C1.875 11.8125 2.25 12.1875 2.8125 12.1875H4.6875V13.125C4.6875 15.1875 5.53125 17.0625 6.9375 18.2812C6.75 19.5938 5.90625 20.7188 4.59375 21.0938C2.25 21.75 0.46875 23.8125 -0.09375 26.4375C-0.1875 26.9062 -0.09375 27.2812 0.1875 27.6562C0.5625 27.9375 0.9375 28.125 1.40625 28.125H15.8437C14.1562 26.4375 13.125 24.0938 13.125 21.5625Z" fill="#333333"/>
</g>
<defs>
<clipPath id="clip0_0_66">
<rect width="30" height="30" fill="white"/>
</clipPath>
</defs>
</svg>
