<svg width="40" height="40" viewBox="0 0 40 40" fill="none" xmlns="http://www.w3.org/2000/svg">
<circle cx="20" cy="20" r="20" fill="#FFFEFE"/>
<circle cx="20" cy="20" r="19.7" stroke="black" stroke-opacity="0.8" stroke-width="0.6"/>
<path d="M16.9869 12.066C17.4245 11.934 17.8941 11.956 18.3175 12.1281C18.7409 12.3002 19.0925 12.6121 19.3139 13.012L19.3879 13.161L20.0499 14.632C20.2508 15.0785 20.3161 15.5742 20.2375 16.0574C20.1589 16.5407 19.94 16.9902 19.6079 17.35L19.4749 17.482L18.4319 18.455C18.2439 18.633 18.3849 19.322 19.0649 20.5C19.6769 21.56 20.1749 22.055 20.4199 22.082H20.4629L20.5159 22.072L22.5659 21.445C22.8415 21.3605 23.1355 21.3571 23.4128 21.4353C23.6902 21.5136 23.9392 21.67 24.1299 21.886L24.2209 22.001L25.5779 23.881C25.8439 24.2495 25.9764 24.6975 25.9537 25.1514C25.931 25.6053 25.7544 26.0379 25.4529 26.378L25.3309 26.504L24.7889 27.018C24.3022 27.4789 23.6934 27.7904 23.0348 27.9153C22.3763 28.0403 21.6957 27.9736 21.0739 27.723C19.1389 26.943 17.3809 25.161 15.7839 22.395C14.1839 19.622 13.5189 17.205 13.8159 15.135C13.9058 14.5092 14.1635 13.9195 14.5616 13.4285C14.9597 12.9374 15.4833 12.5633 16.0769 12.346L16.2699 12.282L16.9869 12.066Z" fill="#85B6FF"/>
</svg>
