<svg width="30" height="30" viewBox="0 0 30 30" fill="none" xmlns="http://www.w3.org/2000/svg">
<path d="M15 13.8281C14.6766 13.8281 14.4141 14.0906 14.4141 14.4141C14.4141 14.7375 14.6766 15 15 15C15.3234 15 15.5859 14.7375 15.5859 14.4141C15.5859 14.0906 15.3234 13.8281 15 13.8281Z" fill="#333333"/>
<path d="M29.4141 4.45312H27.6562V2.69531C27.6562 2.3717 27.3939 2.10938 27.0703 2.10938H17.8289C16.7901 2.10938 15.804 2.45244 15 3.0849C14.1959 2.45244 13.2098 2.10938 12.1711 2.10938H2.92969C2.60613 2.10938 2.34375 2.3717 2.34375 2.69531V4.45312H0.585938C0.262383 4.45312 0 4.71545 0 5.03906V24.9609C0 25.2846 0.262383 25.5469 0.585938 25.5469H11.2078C11.8779 25.5469 12.4804 25.9192 12.7802 26.5185C13.2002 27.3585 14.0594 27.8906 15 27.8906C15.9281 27.8906 16.7948 27.3684 17.2196 26.5188C17.3659 26.2267 17.5903 25.9812 17.8676 25.8095C18.1461 25.6377 18.4659 25.5469 18.7922 25.5469H29.4141C29.7376 25.5469 30 25.2846 30 24.961V5.03906C30 4.71545 29.7376 4.45312 29.4141 4.45312ZM3.51562 3.28125H12.1711C13.0047 3.28125 13.7922 3.57879 14.4141 4.1223V12.0703C14.4141 12.3939 14.6764 12.6562 15 12.6562C15.3236 12.6562 15.5859 12.3939 15.5859 12.0703V4.1223C16.2078 3.57879 16.9953 3.28125 17.8289 3.28125H26.4844V22.0312H17.8289C17.0304 22.0312 16.2634 22.2347 15.5859 22.6158V16.7578C15.5859 16.4342 15.3236 16.1719 15 16.1719C14.6764 16.1719 14.4141 16.4342 14.4141 16.7578V22.6158C13.7365 22.2347 12.9696 22.0312 12.1711 22.0312H3.51562V3.28125ZM28.8281 24.375H18.7922C18.2484 24.375 17.716 24.5261 17.2515 24.8126C16.7886 25.0993 16.4153 25.5079 16.1716 25.9944C15.9532 26.4313 15.503 26.7188 15 26.7188C14.5003 26.7188 14.0483 26.4345 13.8283 25.9942C13.3286 24.9954 12.3245 24.375 11.2078 24.375H1.17188V5.625H2.34375V22.6172C2.34375 22.9408 2.60613 23.2031 2.92969 23.2031H12.1711C13.0832 23.2031 13.9407 23.5584 14.5857 24.2034C14.6955 24.3132 14.8446 24.375 15 24.375C15.1554 24.375 15.3045 24.3132 15.4143 24.2034C16.0593 23.5584 16.9168 23.2031 17.8289 23.2031H27.0703C27.3939 23.2031 27.6562 22.9408 27.6562 22.6172V5.625H28.8281V24.375Z" fill="#333333"/>
<path d="M12.6562 5.625H5.27344C4.94988 5.625 4.6875 5.88732 4.6875 6.21094V9.72656C4.6875 10.0502 4.94988 10.3125 5.27344 10.3125H12.6562C12.9798 10.3125 13.2422 10.0502 13.2422 9.72656V6.21094C13.2422 5.88732 12.9798 5.625 12.6562 5.625ZM12.0703 9.14062H5.85938V6.79688H12.0703V9.14062Z" fill="#333333"/>
<path d="M24.7266 5.625H17.3438C17.0202 5.625 16.7578 5.88732 16.7578 6.21094V9.72656C16.7578 10.0502 17.0202 10.3125 17.3438 10.3125H24.7266C25.0501 10.3125 25.3125 10.0502 25.3125 9.72656V6.21094C25.3125 5.88732 25.0501 5.625 24.7266 5.625ZM24.1406 9.14062H17.9297V6.79688H24.1406V9.14062Z" fill="#333333"/>
<path d="M12.6562 11.4844H5.27344C4.94988 11.4844 4.6875 11.7467 4.6875 12.0703C4.6875 12.3939 4.94988 12.6562 5.27344 12.6562H12.6562C12.9798 12.6562 13.2422 12.3939 13.2422 12.0703C13.2422 11.7467 12.9798 11.4844 12.6562 11.4844Z" fill="#333333"/>
<path d="M24.7266 11.4844H17.3438C17.0202 11.4844 16.7578 11.7467 16.7578 12.0703C16.7578 12.3939 17.0202 12.6562 17.3438 12.6562H24.7266C25.0501 12.6562 25.3125 12.3939 25.3125 12.0703C25.3125 11.7467 25.0501 11.4844 24.7266 11.4844Z" fill="#333333"/>
<path d="M12.6562 13.8281H5.27344C4.94988 13.8281 4.6875 14.0904 4.6875 14.4141C4.6875 14.7377 4.94988 15 5.27344 15H12.6562C12.9798 15 13.2422 14.7377 13.2422 14.4141C13.2422 14.0904 12.9798 13.8281 12.6562 13.8281Z" fill="#333333"/>
<path d="M12.6562 16.1719H5.27344C4.94988 16.1719 4.6875 16.4342 4.6875 16.7578C4.6875 17.0814 4.94988 17.3438 5.27344 17.3438H12.6562C12.9798 17.3438 13.2422 17.0814 13.2422 16.7578C13.2422 16.4342 12.9798 16.1719 12.6562 16.1719Z" fill="#333333"/>
<path d="M12.6562 18.5156H5.27344C4.94988 18.5156 4.6875 18.7779 4.6875 19.1016C4.6875 19.4252 4.94988 19.6875 5.27344 19.6875H12.6562C12.9798 19.6875 13.2422 19.4252 13.2422 19.1016C13.2422 18.7779 12.9798 18.5156 12.6562 18.5156Z" fill="#333333"/>
<path d="M24.7266 13.8281H17.3438C17.0202 13.8281 16.7578 14.0904 16.7578 14.4141C16.7578 14.7377 17.0202 15 17.3438 15H24.7266C25.0501 15 25.3125 14.7377 25.3125 14.4141C25.3125 14.0904 25.0501 13.8281 24.7266 13.8281Z" fill="#333333"/>
<path d="M24.7266 16.1719H17.3438C17.0202 16.1719 16.7578 16.4342 16.7578 16.7578C16.7578 17.0814 17.0202 17.3438 17.3438 17.3438H24.7266C25.0501 17.3438 25.3125 17.0814 25.3125 16.7578C25.3125 16.4342 25.0501 16.1719 24.7266 16.1719Z" fill="#333333"/>
<path d="M24.7266 18.5156H17.3438C17.0202 18.5156 16.7578 18.7779 16.7578 19.1016C16.7578 19.4252 17.0202 19.6875 17.3438 19.6875H24.7266C25.0501 19.6875 25.3125 19.4252 25.3125 19.1016C25.3125 18.7779 25.0501 18.5156 24.7266 18.5156Z" fill="#333333"/>
</svg>
