<svg width="30" height="30" viewBox="0 0 30 30" fill="none" xmlns="http://www.w3.org/2000/svg">
<path d="M15.6001 1.79998V0.599976H14.4001V1.79998H1.8001H0.600098V2.99998H1.8001V18.6H0.600098V19.8H1.8001H12.2827L8.4001 28.6746V29.4H9.6001V28.9254L13.5925 19.8H14.4001V29.4H15.6001V19.8H16.4077L20.4001 28.9254V29.4H21.6001V28.6746L17.7175 19.8H28.2001H29.4001V18.6H28.2001V2.99998H29.4001V1.79998H28.2001H15.6001ZM27.0001 18.6H3.0001V2.99998H27.0001V18.6Z" fill="#333333"/>
<path d="M18 9H16.8V16.8H18V9Z" fill="#333333"/>
<path d="M15 12H13.8V16.8H15V12Z" fill="#333333"/>
<path d="M12 14.4H10.8V16.8H12V14.4Z" fill="#333333"/>
<path d="M9.00005 12H7.80005V16.8H9.00005V12Z" fill="#333333"/>
<path d="M6.00005 15H4.80005V16.8H6.00005V15Z" fill="#333333"/>
<path d="M8.40018 9.24843L11.4002 12.2484L17.8244 5.82423L16.976 4.97583L11.4002 10.5516L8.40018 7.55163L4.37598 11.5758L5.22438 12.4242L8.40018 9.24843Z" fill="#333333"/>
<path d="M25.2 4.79993H19.8V5.99993H25.2V4.79993Z" fill="#333333"/>
<path d="M25.2 7.79993H19.8V8.99993H25.2V7.79993Z" fill="#333333"/>
</svg>
